<mxfile host="app.diagrams.net" agent="Mozilla/5.0 (Windows NT 10.0; Win64; x64) AppleWebKit/537.36 (KHTML, like Gecko) Chrome/127.0.0.0 Safari/537.36" version="24.7.7">
  <diagram name="第 1 页" id="jpwO2qiSY9smqK8Xs_xW">
    <mxGraphModel dx="1434" dy="746" grid="1" gridSize="10" guides="1" tooltips="1" connect="1" arrows="1" fold="1" page="1" pageScale="1" pageWidth="827" pageHeight="1169" math="0" shadow="0">
      <root>
        <mxCell id="0" />
        <mxCell id="1" parent="0" />
        <mxCell id="jOdLxtPcEoV3j5O7J27z-4" style="edgeStyle=orthogonalEdgeStyle;rounded=0;orthogonalLoop=1;jettySize=auto;html=1;entryX=0.5;entryY=0;entryDx=0;entryDy=0;exitX=0.5;exitY=1;exitDx=0;exitDy=0;" edge="1" parent="1" source="jOdLxtPcEoV3j5O7J27z-1" target="jOdLxtPcEoV3j5O7J27z-2">
          <mxGeometry relative="1" as="geometry" />
        </mxCell>
        <mxCell id="jOdLxtPcEoV3j5O7J27z-5" style="edgeStyle=orthogonalEdgeStyle;rounded=0;orthogonalLoop=1;jettySize=auto;html=1;entryX=0.5;entryY=0;entryDx=0;entryDy=0;exitX=0.5;exitY=1;exitDx=0;exitDy=0;" edge="1" parent="1" source="jOdLxtPcEoV3j5O7J27z-1" target="jOdLxtPcEoV3j5O7J27z-3">
          <mxGeometry relative="1" as="geometry" />
        </mxCell>
        <mxCell id="jOdLxtPcEoV3j5O7J27z-1" value="3" style="ellipse;whiteSpace=wrap;html=1;aspect=fixed;" vertex="1" parent="1">
          <mxGeometry x="320" y="80" width="40" height="40" as="geometry" />
        </mxCell>
        <mxCell id="jOdLxtPcEoV3j5O7J27z-8" style="edgeStyle=orthogonalEdgeStyle;rounded=0;orthogonalLoop=1;jettySize=auto;html=1;entryX=0.5;entryY=0;entryDx=0;entryDy=0;exitX=0.5;exitY=1;exitDx=0;exitDy=0;" edge="1" parent="1" source="jOdLxtPcEoV3j5O7J27z-2" target="jOdLxtPcEoV3j5O7J27z-6">
          <mxGeometry relative="1" as="geometry" />
        </mxCell>
        <mxCell id="jOdLxtPcEoV3j5O7J27z-9" style="edgeStyle=orthogonalEdgeStyle;rounded=0;orthogonalLoop=1;jettySize=auto;html=1;entryX=0.5;entryY=0;entryDx=0;entryDy=0;exitX=0.5;exitY=1;exitDx=0;exitDy=0;" edge="1" parent="1" source="jOdLxtPcEoV3j5O7J27z-2" target="jOdLxtPcEoV3j5O7J27z-7">
          <mxGeometry relative="1" as="geometry" />
        </mxCell>
        <mxCell id="jOdLxtPcEoV3j5O7J27z-2" value="5" style="ellipse;whiteSpace=wrap;html=1;aspect=fixed;" vertex="1" parent="1">
          <mxGeometry x="250" y="160" width="40" height="40" as="geometry" />
        </mxCell>
        <mxCell id="jOdLxtPcEoV3j5O7J27z-16" style="edgeStyle=orthogonalEdgeStyle;rounded=0;orthogonalLoop=1;jettySize=auto;html=1;" edge="1" parent="1" source="jOdLxtPcEoV3j5O7J27z-3" target="jOdLxtPcEoV3j5O7J27z-14">
          <mxGeometry relative="1" as="geometry" />
        </mxCell>
        <mxCell id="jOdLxtPcEoV3j5O7J27z-17" style="edgeStyle=orthogonalEdgeStyle;rounded=0;orthogonalLoop=1;jettySize=auto;html=1;entryX=0.5;entryY=0;entryDx=0;entryDy=0;" edge="1" parent="1" source="jOdLxtPcEoV3j5O7J27z-3" target="jOdLxtPcEoV3j5O7J27z-15">
          <mxGeometry relative="1" as="geometry" />
        </mxCell>
        <mxCell id="jOdLxtPcEoV3j5O7J27z-3" value="1" style="ellipse;whiteSpace=wrap;html=1;aspect=fixed;" vertex="1" parent="1">
          <mxGeometry x="400" y="160" width="40" height="40" as="geometry" />
        </mxCell>
        <mxCell id="jOdLxtPcEoV3j5O7J27z-6" value="6" style="ellipse;whiteSpace=wrap;html=1;aspect=fixed;" vertex="1" parent="1">
          <mxGeometry x="200" y="240" width="40" height="40" as="geometry" />
        </mxCell>
        <mxCell id="jOdLxtPcEoV3j5O7J27z-12" style="edgeStyle=orthogonalEdgeStyle;rounded=0;orthogonalLoop=1;jettySize=auto;html=1;entryX=0.5;entryY=0;entryDx=0;entryDy=0;exitX=0.5;exitY=1;exitDx=0;exitDy=0;" edge="1" parent="1" source="jOdLxtPcEoV3j5O7J27z-7" target="jOdLxtPcEoV3j5O7J27z-10">
          <mxGeometry relative="1" as="geometry" />
        </mxCell>
        <mxCell id="jOdLxtPcEoV3j5O7J27z-13" style="edgeStyle=orthogonalEdgeStyle;rounded=0;orthogonalLoop=1;jettySize=auto;html=1;entryX=0.5;entryY=0;entryDx=0;entryDy=0;exitX=0.5;exitY=1;exitDx=0;exitDy=0;" edge="1" parent="1" source="jOdLxtPcEoV3j5O7J27z-7" target="jOdLxtPcEoV3j5O7J27z-11">
          <mxGeometry relative="1" as="geometry" />
        </mxCell>
        <mxCell id="jOdLxtPcEoV3j5O7J27z-7" value="2" style="ellipse;whiteSpace=wrap;html=1;aspect=fixed;fillColor=#d5e8d4;strokeColor=#82b366;" vertex="1" parent="1">
          <mxGeometry x="310" y="240" width="40" height="40" as="geometry" />
        </mxCell>
        <mxCell id="jOdLxtPcEoV3j5O7J27z-10" value="7" style="ellipse;whiteSpace=wrap;html=1;aspect=fixed;fillColor=#d5e8d4;strokeColor=#82b366;" vertex="1" parent="1">
          <mxGeometry x="260" y="320" width="40" height="40" as="geometry" />
        </mxCell>
        <mxCell id="jOdLxtPcEoV3j5O7J27z-11" value="4" style="ellipse;whiteSpace=wrap;html=1;aspect=fixed;" vertex="1" parent="1">
          <mxGeometry x="360" y="320" width="40" height="40" as="geometry" />
        </mxCell>
        <mxCell id="jOdLxtPcEoV3j5O7J27z-14" value="0" style="ellipse;whiteSpace=wrap;html=1;aspect=fixed;" vertex="1" parent="1">
          <mxGeometry x="360" y="240" width="40" height="40" as="geometry" />
        </mxCell>
        <mxCell id="jOdLxtPcEoV3j5O7J27z-15" value="6" style="ellipse;whiteSpace=wrap;html=1;aspect=fixed;" vertex="1" parent="1">
          <mxGeometry x="440" y="240" width="40" height="40" as="geometry" />
        </mxCell>
        <mxCell id="jOdLxtPcEoV3j5O7J27z-19" style="edgeStyle=orthogonalEdgeStyle;rounded=0;orthogonalLoop=1;jettySize=auto;html=1;entryX=0.5;entryY=0;entryDx=0;entryDy=0;exitX=0.5;exitY=1;exitDx=0;exitDy=0;" edge="1" parent="1" source="jOdLxtPcEoV3j5O7J27z-21" target="jOdLxtPcEoV3j5O7J27z-24">
          <mxGeometry relative="1" as="geometry" />
        </mxCell>
        <mxCell id="jOdLxtPcEoV3j5O7J27z-20" style="edgeStyle=orthogonalEdgeStyle;rounded=0;orthogonalLoop=1;jettySize=auto;html=1;entryX=0.5;entryY=0;entryDx=0;entryDy=0;exitX=0.5;exitY=1;exitDx=0;exitDy=0;" edge="1" parent="1" source="jOdLxtPcEoV3j5O7J27z-21" target="jOdLxtPcEoV3j5O7J27z-27">
          <mxGeometry relative="1" as="geometry" />
        </mxCell>
        <mxCell id="jOdLxtPcEoV3j5O7J27z-21" value="3" style="ellipse;whiteSpace=wrap;html=1;aspect=fixed;" vertex="1" parent="1">
          <mxGeometry x="680" y="80" width="40" height="40" as="geometry" />
        </mxCell>
        <mxCell id="jOdLxtPcEoV3j5O7J27z-22" style="edgeStyle=orthogonalEdgeStyle;rounded=0;orthogonalLoop=1;jettySize=auto;html=1;entryX=0.5;entryY=0;entryDx=0;entryDy=0;exitX=0.5;exitY=1;exitDx=0;exitDy=0;" edge="1" parent="1" source="jOdLxtPcEoV3j5O7J27z-24" target="jOdLxtPcEoV3j5O7J27z-28">
          <mxGeometry relative="1" as="geometry" />
        </mxCell>
        <mxCell id="jOdLxtPcEoV3j5O7J27z-23" style="edgeStyle=orthogonalEdgeStyle;rounded=0;orthogonalLoop=1;jettySize=auto;html=1;entryX=0.5;entryY=0;entryDx=0;entryDy=0;exitX=0.5;exitY=1;exitDx=0;exitDy=0;" edge="1" parent="1" source="jOdLxtPcEoV3j5O7J27z-24" target="jOdLxtPcEoV3j5O7J27z-31">
          <mxGeometry relative="1" as="geometry" />
        </mxCell>
        <mxCell id="jOdLxtPcEoV3j5O7J27z-24" value="5" style="ellipse;whiteSpace=wrap;html=1;aspect=fixed;" vertex="1" parent="1">
          <mxGeometry x="610" y="160" width="40" height="40" as="geometry" />
        </mxCell>
        <mxCell id="jOdLxtPcEoV3j5O7J27z-25" style="edgeStyle=orthogonalEdgeStyle;rounded=0;orthogonalLoop=1;jettySize=auto;html=1;" edge="1" parent="1" source="jOdLxtPcEoV3j5O7J27z-27" target="jOdLxtPcEoV3j5O7J27z-34">
          <mxGeometry relative="1" as="geometry" />
        </mxCell>
        <mxCell id="jOdLxtPcEoV3j5O7J27z-26" style="edgeStyle=orthogonalEdgeStyle;rounded=0;orthogonalLoop=1;jettySize=auto;html=1;entryX=0.5;entryY=0;entryDx=0;entryDy=0;" edge="1" parent="1" source="jOdLxtPcEoV3j5O7J27z-27" target="jOdLxtPcEoV3j5O7J27z-35">
          <mxGeometry relative="1" as="geometry" />
        </mxCell>
        <mxCell id="jOdLxtPcEoV3j5O7J27z-27" value="1" style="ellipse;whiteSpace=wrap;html=1;aspect=fixed;" vertex="1" parent="1">
          <mxGeometry x="760" y="160" width="40" height="40" as="geometry" />
        </mxCell>
        <mxCell id="jOdLxtPcEoV3j5O7J27z-28" value="6" style="ellipse;whiteSpace=wrap;html=1;aspect=fixed;" vertex="1" parent="1">
          <mxGeometry x="560" y="240" width="40" height="40" as="geometry" />
        </mxCell>
        <mxCell id="jOdLxtPcEoV3j5O7J27z-29" style="edgeStyle=orthogonalEdgeStyle;rounded=0;orthogonalLoop=1;jettySize=auto;html=1;entryX=0.5;entryY=0;entryDx=0;entryDy=0;exitX=0.5;exitY=1;exitDx=0;exitDy=0;" edge="1" parent="1" source="jOdLxtPcEoV3j5O7J27z-31" target="jOdLxtPcEoV3j5O7J27z-32">
          <mxGeometry relative="1" as="geometry" />
        </mxCell>
        <mxCell id="jOdLxtPcEoV3j5O7J27z-30" style="edgeStyle=orthogonalEdgeStyle;rounded=0;orthogonalLoop=1;jettySize=auto;html=1;entryX=0.5;entryY=0;entryDx=0;entryDy=0;exitX=0.5;exitY=1;exitDx=0;exitDy=0;" edge="1" parent="1" source="jOdLxtPcEoV3j5O7J27z-31" target="jOdLxtPcEoV3j5O7J27z-33">
          <mxGeometry relative="1" as="geometry" />
        </mxCell>
        <mxCell id="jOdLxtPcEoV3j5O7J27z-31" value="2" style="ellipse;whiteSpace=wrap;html=1;aspect=fixed;fillColor=#d5e8d4;strokeColor=#82b366;" vertex="1" parent="1">
          <mxGeometry x="670" y="240" width="40" height="40" as="geometry" />
        </mxCell>
        <mxCell id="jOdLxtPcEoV3j5O7J27z-32" value="7" style="ellipse;whiteSpace=wrap;html=1;aspect=fixed;" vertex="1" parent="1">
          <mxGeometry x="620" y="320" width="40" height="40" as="geometry" />
        </mxCell>
        <mxCell id="jOdLxtPcEoV3j5O7J27z-33" value="4" style="ellipse;whiteSpace=wrap;html=1;aspect=fixed;fillColor=#d5e8d4;strokeColor=#82b366;" vertex="1" parent="1">
          <mxGeometry x="720" y="320" width="40" height="40" as="geometry" />
        </mxCell>
        <mxCell id="jOdLxtPcEoV3j5O7J27z-34" value="0" style="ellipse;whiteSpace=wrap;html=1;aspect=fixed;" vertex="1" parent="1">
          <mxGeometry x="720" y="240" width="40" height="40" as="geometry" />
        </mxCell>
        <mxCell id="jOdLxtPcEoV3j5O7J27z-35" value="6" style="ellipse;whiteSpace=wrap;html=1;aspect=fixed;" vertex="1" parent="1">
          <mxGeometry x="800" y="240" width="40" height="40" as="geometry" />
        </mxCell>
        <mxCell id="jOdLxtPcEoV3j5O7J27z-36" style="edgeStyle=orthogonalEdgeStyle;rounded=0;orthogonalLoop=1;jettySize=auto;html=1;entryX=0.5;entryY=0;entryDx=0;entryDy=0;exitX=0.5;exitY=1;exitDx=0;exitDy=0;" edge="1" parent="1" source="jOdLxtPcEoV3j5O7J27z-38" target="jOdLxtPcEoV3j5O7J27z-41">
          <mxGeometry relative="1" as="geometry" />
        </mxCell>
        <mxCell id="jOdLxtPcEoV3j5O7J27z-37" style="edgeStyle=orthogonalEdgeStyle;rounded=0;orthogonalLoop=1;jettySize=auto;html=1;entryX=0.5;entryY=0;entryDx=0;entryDy=0;exitX=0.5;exitY=1;exitDx=0;exitDy=0;" edge="1" parent="1" source="jOdLxtPcEoV3j5O7J27z-38" target="jOdLxtPcEoV3j5O7J27z-44">
          <mxGeometry relative="1" as="geometry" />
        </mxCell>
        <mxCell id="jOdLxtPcEoV3j5O7J27z-38" value="3" style="ellipse;whiteSpace=wrap;html=1;aspect=fixed;" vertex="1" parent="1">
          <mxGeometry x="550" y="440" width="40" height="40" as="geometry" />
        </mxCell>
        <mxCell id="jOdLxtPcEoV3j5O7J27z-39" style="edgeStyle=orthogonalEdgeStyle;rounded=0;orthogonalLoop=1;jettySize=auto;html=1;entryX=0.5;entryY=0;entryDx=0;entryDy=0;exitX=0.5;exitY=1;exitDx=0;exitDy=0;" edge="1" parent="1" source="jOdLxtPcEoV3j5O7J27z-41" target="jOdLxtPcEoV3j5O7J27z-45">
          <mxGeometry relative="1" as="geometry" />
        </mxCell>
        <mxCell id="jOdLxtPcEoV3j5O7J27z-40" style="edgeStyle=orthogonalEdgeStyle;rounded=0;orthogonalLoop=1;jettySize=auto;html=1;entryX=0.5;entryY=0;entryDx=0;entryDy=0;exitX=0.5;exitY=1;exitDx=0;exitDy=0;" edge="1" parent="1" source="jOdLxtPcEoV3j5O7J27z-41" target="jOdLxtPcEoV3j5O7J27z-48">
          <mxGeometry relative="1" as="geometry" />
        </mxCell>
        <mxCell id="jOdLxtPcEoV3j5O7J27z-41" value="5" style="ellipse;whiteSpace=wrap;html=1;aspect=fixed;" vertex="1" parent="1">
          <mxGeometry x="480" y="520" width="40" height="40" as="geometry" />
        </mxCell>
        <mxCell id="jOdLxtPcEoV3j5O7J27z-42" style="edgeStyle=orthogonalEdgeStyle;rounded=0;orthogonalLoop=1;jettySize=auto;html=1;" edge="1" parent="1" source="jOdLxtPcEoV3j5O7J27z-44" target="jOdLxtPcEoV3j5O7J27z-51">
          <mxGeometry relative="1" as="geometry" />
        </mxCell>
        <mxCell id="jOdLxtPcEoV3j5O7J27z-43" style="edgeStyle=orthogonalEdgeStyle;rounded=0;orthogonalLoop=1;jettySize=auto;html=1;entryX=0.5;entryY=0;entryDx=0;entryDy=0;" edge="1" parent="1" source="jOdLxtPcEoV3j5O7J27z-44" target="jOdLxtPcEoV3j5O7J27z-52">
          <mxGeometry relative="1" as="geometry" />
        </mxCell>
        <mxCell id="jOdLxtPcEoV3j5O7J27z-44" value="1" style="ellipse;whiteSpace=wrap;html=1;aspect=fixed;" vertex="1" parent="1">
          <mxGeometry x="630" y="520" width="40" height="40" as="geometry" />
        </mxCell>
        <mxCell id="jOdLxtPcEoV3j5O7J27z-45" value="6" style="ellipse;whiteSpace=wrap;html=1;aspect=fixed;" vertex="1" parent="1">
          <mxGeometry x="430" y="600" width="40" height="40" as="geometry" />
        </mxCell>
        <mxCell id="jOdLxtPcEoV3j5O7J27z-46" style="edgeStyle=orthogonalEdgeStyle;rounded=0;orthogonalLoop=1;jettySize=auto;html=1;entryX=0.5;entryY=0;entryDx=0;entryDy=0;exitX=0.5;exitY=1;exitDx=0;exitDy=0;" edge="1" parent="1" source="jOdLxtPcEoV3j5O7J27z-48" target="jOdLxtPcEoV3j5O7J27z-49">
          <mxGeometry relative="1" as="geometry" />
        </mxCell>
        <mxCell id="jOdLxtPcEoV3j5O7J27z-47" style="edgeStyle=orthogonalEdgeStyle;rounded=0;orthogonalLoop=1;jettySize=auto;html=1;entryX=0.5;entryY=0;entryDx=0;entryDy=0;exitX=0.5;exitY=1;exitDx=0;exitDy=0;" edge="1" parent="1" source="jOdLxtPcEoV3j5O7J27z-48" target="jOdLxtPcEoV3j5O7J27z-50">
          <mxGeometry relative="1" as="geometry" />
        </mxCell>
        <mxCell id="jOdLxtPcEoV3j5O7J27z-48" value="2" style="ellipse;whiteSpace=wrap;html=1;aspect=fixed;" vertex="1" parent="1">
          <mxGeometry x="540" y="600" width="40" height="40" as="geometry" />
        </mxCell>
        <mxCell id="jOdLxtPcEoV3j5O7J27z-49" value="7" style="ellipse;whiteSpace=wrap;html=1;aspect=fixed;fillColor=#d5e8d4;strokeColor=#82b366;" vertex="1" parent="1">
          <mxGeometry x="490" y="680" width="40" height="40" as="geometry" />
        </mxCell>
        <mxCell id="jOdLxtPcEoV3j5O7J27z-50" value="4" style="ellipse;whiteSpace=wrap;html=1;aspect=fixed;fillColor=#d5e8d4;strokeColor=#82b366;" vertex="1" parent="1">
          <mxGeometry x="590" y="680" width="40" height="40" as="geometry" />
        </mxCell>
        <mxCell id="jOdLxtPcEoV3j5O7J27z-51" value="0" style="ellipse;whiteSpace=wrap;html=1;aspect=fixed;" vertex="1" parent="1">
          <mxGeometry x="590" y="600" width="40" height="40" as="geometry" />
        </mxCell>
        <mxCell id="jOdLxtPcEoV3j5O7J27z-52" value="6" style="ellipse;whiteSpace=wrap;html=1;aspect=fixed;" vertex="1" parent="1">
          <mxGeometry x="670" y="600" width="40" height="40" as="geometry" />
        </mxCell>
      </root>
    </mxGraphModel>
  </diagram>
</mxfile>
